<svg xmlns="http://www.w3.org/2000/svg" viewBox="0 0 32 32" fill="none">
  <defs>
    <linearGradient id="bw-grad" x1="0" y1="0" x2="32" y2="32" gradientUnits="userSpaceOnUse">
      <stop offset="0%" stop-color="#0182ff"/>
      <stop offset="100%" stop-color="#32f6e0"/>
    </linearGradient>
  </defs>
  <!-- Shield shape -->
  <path d="M4 2h24a2 2 0 0 1 2 2v18a8 8 0 0 1-3.5 6.6L16 35.5 5.5 28.6A8 8 0 0 1 2 22V4a2 2 0 0 1 2-2z" fill="url(#bw-grad)" opacity="0.15"/>
  <path d="M4 2h24a2 2 0 0 1 2 2v18a8 8 0 0 1-3.5 6.6L16 35.5 5.5 28.6A8 8 0 0 1 2 22V4a2 2 0 0 1 2-2z" fill="none" stroke="url(#bw-grad)" stroke-width="1.5"/>
  <!-- B letter -->
  <path d="M8 8h5.5c2.2 0 3.5 1.2 3.5 3 0 1.2-.7 2.1-1.8 2.5 1.3.4 2.2 1.4 2.2 2.8 0 2-1.4 3.2-3.7 3.2H8V8zm3 4.5h2.2c.8 0 1.3-.4 1.3-1.1 0-.7-.5-1.1-1.3-1.1H11v2.2zm0 4.7h2.5c.9 0 1.4-.5 1.4-1.2 0-.7-.5-1.2-1.4-1.2H11v2.4z" fill="currentColor"/>
  <!-- W letter -->
  <path d="M17 8h2.8l1.6 7.5L23 8h2.8L22.5 22h-2.2l-1.7-7.8L16.8 22h-2.2L17 8z" fill="currentColor" opacity="0.7"/>
</svg>
